{"title":"BARBIE PRINCESS CHARM SCHOOL 2011 GREEK AUDIO","uid":7779053,"size":1730761032,"categoryP":"video","categoryS":"movies","magnet":"?xt=urn:btih:c6ae80c4db821bfbf78729d89ee9a87b3f6984d4&amp;dn=BARBIE+PRINCESS+CHARM+SCHOOL+2011+GREEK+AUDIO&amp;tr=udp%3A%2F%2Ftracker.openbittorrent.com%3A80&amp;tr=udp%3A%2F%2Fopen.demonii.com%3A1337&amp;tr=udp%3A%2F%2Ftracker.coppersurfer.tk%3A6969&amp;tr=udp%3A%2F%2Fexodus.desync.com%3A6969","seeders":7,"leechers":2,"uploader":"maxalexath","files":1,"time":1351729807,"description":"[b]Barbie: Sholeio gia prigipisses (Video 2011) \nBarbie: Princess Charm School (original title)[/b]\n[b]Directors: Ezekiel Norton, Terry Klassen\nWriters: Elise Allen, Kati Rocky (story)\nStars: Diana Kaarina, Morwenna Banks and Nicole Oliver[/b]\n[b]General\nFormat : AVI\nFormat/Info : Audio Video Interleave\nFile size : 1.61 GiB\nDuration : 1h 19mn\nOveral bit rate : 2895 Kbps\nMovie name : BARBIE CHARM SCHOOL \nWriting application : Lavf52.33.0\nVideo\nFormat : MPEG-4 Visual\nFormat profile : Simple@L3\nFormat settings, BVOP : No\nFormat settings, QPel : No\nFormat settings, GMC : 0 warppoint\nFormat settings, Matrix : Default\nCodec ID : XVID\nCodec ID/Hint : XviD\nDuration : 1h 19mn\nBit rate : 2500 Kbps\nWidth : 720 pixels\nHeight : 400 pixels\nDisplay aspect ratio : 16/9\nFrame rate : 25.000 fps\nResolution : 8 bits\nColorimetry : 4:2:0\nScan type : Progressive\nBits/(Pixel*Frame) : 0.347\nStream size : 1.39 GiB\nWriting library : XviD0050\nAudio\nFormat : AC-3\nFormat/Info : Audio Coding 3\nCodec ID : 2000\nDuration : 1h 19mn\nBit rate mode : CBR\nBit rate : 384 Kbps\nChannel(s) : 6 channels\nChannel positions : Front: L C R, Rear: L R, LFE\nSampling rate : 48.0 KHz\nStream size : 219 MiB\n[/b]","torrent":{"xt":"urn:btih:c6ae80c4db821bfbf78729d89ee9a87b3f6984d4","amp;dn":"BARBIE+PRINCESS+CHARM+SCHOOL+2011+GREEK+AUDIO","amp;tr":["udp%3A%2F%2Ftracker.openbittorrent.com%3A80","udp%3A%2F%2Fopen.demonii.com%3A1337","udp%3A%2F%2Ftracker.coppersurfer.tk%3A6969","udp%3A%2F%2Fexodus.desync.com%3A6969"],"infoHash":"c6ae80c4db821bfbf78729d89ee9a87b3f6984d4","infoHashBuffer":{"type":"Buffer","data":[198,174,128,196,219,130,27,251,247,135,41,216,158,233,168,123,63,105,132,212]},"announce":[],"urlList":[]}}